<?xml version="1.0" encoding="UTF-8"?>
<!DOCTYPE svg PUBLIC "-//W3C//DTD SVG 1.1//EN" "http://www.w3.org/Graphics/SVG/1.1/DTD/svg11.dtd">
<!-- Creator: CorelDRAW -->
<svg xmlns="http://www.w3.org/2000/svg" xml:space="preserve" width="1033px" height="1029px" version="1.1" shape-rendering="geometricPrecision" text-rendering="geometricPrecision" image-rendering="optimizeQuality" fill-rule="evenodd" clip-rule="evenodd"
viewBox="0 0 573280 571210"
 xmlns:xlink="http://www.w3.org/1999/xlink"
 xmlns:xodm="http://www.corel.com/coreldraw/odm/2003">
 <g id="Camada_x0020_1">
  <metadata id="CorelCorpID_0Corel-Layer"/>
  <polygon fill="#EBBE7F" points="572690,506980 568370,294240 454740,171310 439220,378460 404940,116070 299640,0 299640,506940 372400,506910 372400,329810 415570,506940 466440,506940 499270,329810 504620,506880 "/>
  <polygon fill="#C225AA" points="590,506950 4280,262510 136720,135690 182710,375690 183370,92810 273620,20 273620,506960 147750,506960 97400,371320 97400,506950 "/>
  <path fill="#C225AA" fill-rule="nonzero" d="M23580 531470l0 22740 -15220 -22740 -8360 0 0 39020 9590 0 0 -22740 15210 22740 8360 0 0 -39020 -9580 0zm42850 39020l9980 0 -14040 -39020 -11260 0 -14050 39020 10030 0 2290 -7250 14770 0 2280 7250zm-14820 -14490l5130 -16220 5120 16220 -10250 0zm52050 -24530l-27810 0 0 9030 9140 0 0 29990 9530 0 0 -29990 9140 0 0 -9030zm28710 0l0 14830 -14160 0 0 -14830 -9530 0 0 39020 9530 0 0 -15160 14160 0 0 15160 9530 0 0 -39020 -9530 0zm42800 39020l9980 0 -14050 -39020 -11260 0 -14040 39020 10030 0 2290 -7250 14770 0 2280 7250zm-14820 -14490l5120 -16220 5130 16220 -10250 0zm5230 -36620l-3620 7800 7190 0 5410 -7800 -8980 0zm33050 42130l0 -30040 -9580 0 0 39020 24130 0 0 -8980 -14550 0zm19570 -30040l0 39020 9530 0 0 -39020 -9530 0zm42800 39020l9980 0 -14050 -39020 -11260 0 -14040 39020 10030 0 2290 -7250 14770 0 2280 7250zm-14820 -14490l5120 -16220 5130 16220 -10250 0zm76070 -24530l-11420 18900 -11430 -18900 -10030 0 0 39020 9530 0 0 -23190 10200 16780 3510 0 10140 -16780 0 23190 9590 0 0 -39020 -10090 0zm35230 -670c-11540,0 -19850,8640 -19850,20180 0,11590 8310,20230 19850,20230 11530,0 19840,-8640 19840,-20230 0,-11540 -8310,-20180 -19840,-20180zm0 31210c-6800,0 -10260,-5510 -10260,-11030 0,-5520 3460,-10980 10260,-10980 6790,0 10250,5460 10250,10980 0,5520 -3460,11030 -10250,11030zm48710 -30540l0 22740 -15220 -22740 -8360 0 0 39020 9590 0 0 -22740 15210 22740 8360 0 0 -39020 -9580 0zm42410 0l-27810 0 0 9030 9140 0 0 29990 9530 0 0 -29990 9140 0 0 -9030zm14550 30040l0 -6460 12700 0 0 -8530 -12700 0 0 -6020 14490 0 0 -9030 -24020 0 0 39020 24520 0 0 -8980 -14990 0zm20560 -30040l0 39020 9530 0 0 -39020 -9530 0zm4680 -12090l-8970 0 5410 7800 7190 0 -3630 -7800zm43810 51110l-8300 -15220c3730,-2120 6010,-5630 6010,-10310 0,-7800 -5070,-13490 -14990,-13490l-14990 0 0 39020 9530 0 0 -13050 5460 0c230,0 390,0 560,0l6580 13050 10140 0zm-22740 -29990l5460 0c3180,0 5350,1560 5350,4460 0,3340 -2560,4460 -5350,4460l-5460 0 0 -8920zm43970 -9700c-11530,0 -19840,8640 -19840,20180 0,11590 8310,20230 19840,20230 11540,0 19850,-8640 19850,-20230 0,-11540 -8310,-20180 -19850,-20180zm0 31210c-6790,0 -10250,-5510 -10250,-11030 0,-5520 3460,-10980 10250,-10980 6800,0 10260,5460 10260,10980 0,5520 -3460,11030 -10260,11030z"/>
 </g>
</svg>
